<svg xmlns="http://www.w3.org/2000/svg" width="140.642" height="123.068" viewBox="0 0 140.642 123.068">
  <path id="Icon_awesome-react" data-name="Icon awesome-react" d="M114.876,42.132q-2.225-.742-4.45-1.4c.247-1.016.467-2.033.687-3.049,3.379-16.372,1.154-29.529-6.345-33.869-7.224-4.148-19.009.165-30.93,10.548C72.656,15.378,71.5,16.449,70.4,17.52c-.742-.714-1.511-1.428-2.28-2.115C55.625,4.308,43.1-.362,35.6,4.005c-7.2,4.175-9.339,16.564-6.318,32.056.3,1.538.632,3.049,1.016,4.587-1.758.494-3.489,1.044-5.109,1.621C10.521,47.352,0,55.373,0,63.668c0,8.57,11.207,17.168,26.453,22.387,1.236.412,2.472.824,3.736,1.181-.412,1.648-.769,3.269-1.1,4.944-2.884,15.245-.632,27.332,6.565,31.48,7.417,4.285,19.888-.11,32.029-10.74.961-.852,1.923-1.731,2.884-2.664,1.209,1.181,2.472,2.307,3.736,3.406,11.757,10.109,23.376,14.2,30.546,10.054,7.417-4.285,9.834-17.278,6.7-33.1q-.371-1.813-.824-3.708c.879-.247,1.731-.522,2.582-.8,15.85-5.247,27.332-13.735,27.332-22.442C140.641,55.345,129.819,47.269,114.876,42.132ZM77.71,18.811c10.218-8.9,19.75-12.389,24.09-9.889,4.642,2.664,6.428,13.432,3.516,27.579-.192.934-.385,1.84-.632,2.747A140.623,140.623,0,0,0,86.2,36.337,138.786,138.786,0,0,0,74.5,21.75c1.071-1.016,2.115-1.978,3.214-2.939ZM45.928,77.925c1.4,2.39,2.829,4.78,4.34,7.114a124.388,124.388,0,0,1-12.746-2.06A128.316,128.316,0,0,1,42,70.755c1.264,2.417,2.555,4.807,3.928,7.169ZM37.605,44.879c3.956-.879,8.158-1.593,12.526-2.143-1.456,2.28-2.884,4.615-4.23,6.977-1.346,2.335-2.665,4.725-3.9,7.142-1.731-4.093-3.186-8.1-4.4-11.976Zm7.527,18.926c1.813-3.791,3.791-7.5,5.878-11.152s4.34-7.2,6.7-10.685c4.12-.3,8.323-.467,12.608-.467s8.515.165,12.608.467q3.5,5.192,6.675,10.631t5.961,11.1Q92.8,69.382,89.631,74.9c-2.088,3.653-4.313,7.2-6.648,10.713-4.093.3-8.351.439-12.663.439s-8.488-.137-12.526-.385q-3.585-5.233-6.757-10.713C48.922,71.3,46.972,67.6,45.132,63.806ZM94.741,77.87c1.4-2.417,2.719-4.862,4.01-7.334A127.512,127.512,0,0,1,103.393,82.7a120.648,120.648,0,0,1-12.91,2.2C91.966,82.594,93.367,80.232,94.741,77.87ZM98.7,56.856c-1.291-2.417-2.61-4.835-3.983-7.2q-2.019-3.5-4.2-6.922a126.407,126.407,0,0,1,12.608,2.2A121.57,121.57,0,0,1,98.7,56.856Zm-28.321-30.9a120.621,120.621,0,0,1,8.131,9.834c-5.439-.247-10.905-.247-16.344,0C64.854,32.244,67.629,28.947,70.376,25.953ZM38.512,9.115c4.615-2.692,14.861,1.154,25.656,10.713.687.6,1.373,1.264,2.088,1.923A139.558,139.558,0,0,0,54.471,36.337a144.8,144.8,0,0,0-18.459,2.857c-.357-1.4-.659-2.829-.961-4.258-2.582-13.3-.879-23.321,3.461-25.821Zm-6.73,72.408c-1.154-.33-2.28-.687-3.406-1.071-5.851-1.84-12.5-4.752-17.305-8.57a12.326,12.326,0,0,1-5.164-8.213c0-5.027,8.68-11.455,21.206-15.822,1.566-.549,3.159-1.044,4.752-1.511a146.063,146.063,0,0,0,6.73,17.47,150.153,150.153,0,0,0-6.812,17.718Zm32.029,26.92a50.278,50.278,0,0,1-15.493,9.7,12.158,12.158,0,0,1-9.7.357c-4.368-2.527-6.181-12.224-3.708-25.272.3-1.538.632-3.077,1.016-4.587A137.423,137.423,0,0,0,54.581,91.33,144.961,144.961,0,0,0,66.448,106C65.569,106.85,64.69,107.674,63.811,108.443Zm6.73-6.675c-2.8-3.022-5.6-6.373-8.323-9.971,2.637.11,5.356.165,8.1.165,2.829,0,5.6-.055,8.351-.192A118.465,118.465,0,0,1,70.541,101.768Zm35.9,8.241a12.208,12.208,0,0,1-4.532,8.6c-4.368,2.527-13.68-.769-23.733-9.394-1.154-.989-2.307-2.06-3.489-3.159A135.885,135.885,0,0,0,86.28,91.33a135.411,135.411,0,0,0,18.734-2.884c.275,1.126.522,2.252.742,3.351A50.074,50.074,0,0,1,106.443,110.008Zm5-29.529c-.769.247-1.538.494-2.335.714a139.541,139.541,0,0,0-7-17.525,138.845,138.845,0,0,0,6.73-17.278c1.428.412,2.8.852,4.12,1.291,12.8,4.4,21.783,10.933,21.783,15.932,0,5.384-9.587,12.334-23.294,16.866Zm-41.121-4.12A12.581,12.581,0,1,0,57.74,63.778,12.579,12.579,0,0,0,70.321,76.359Z" transform="translate(0 -2.251)" fill="#00f5ff"/>
</svg>
